<svg width="133.22123052864362" height="72.44370367317487" xmlns="http://www.w3.org/2000/svg" version="1.1">
 <!-- Exported by Scratch - http://scratch.mit.edu/ -->

 <g>
  <title>Layer 1</title>
  <path d="m57.438,63.6846c-6.5398,-2.4741 -19.405,-7.9333 -15.7222,-14.02c3.682,-6.0858 19.5462,8.6911 23.527,10.1167c0,0 5.1676,-3.748 5.5385,0.0053c0.3717,3.7534 -4.5519,3.1557 -4.5519,3.1557c0,0 5.6525,0.3713 3.6911,3.9182c-1.9613,3.547 -4.4355,0.7169 -5.0632,-0.4217c0,0 1.9013,3.5426 -0.7347,4.4993c-2.6368,0.9559 -4.14,-2.5778 -2.1263,-4.6737c0,0 -1.3721,-1.3746 -4.5583,-2.5798l0,0l0,0l0,0l0,0l0,0z" stroke-linejoin="round" stroke-width="1.52831" stroke="#000000" fill="#E29339" id="Back_Leg2"/>
  <path d="m57.7911,17.6133c-5.9242,3.3692 -18.7564,6.8116 -15.0031,12.8534c3.7534,6.0412 18.8897,-7.5689 22.8528,-9.0423c0,0 5.2117,3.6866 5.5376,-0.0711c0.3267,-3.7577 -4.5883,-3.101 -4.5883,-3.101c0,0 5.6484,-0.4363 3.6439,-3.9607c-2.0022,-3.5242 -4.443,-0.6645 -5.0567,0.4808c0,0 1.8595,-3.5645 -0.7882,-4.4894c-2.6477,-0.9249 -4.1098,2.6256 -2.0704,4.6975c-0.0008,-0.0008 -2.0668,1.2321 -4.5276,2.6328l0,0l0,0l0,0l0,0l0,0z" stroke-linejoin="round" stroke-width="1.52831" stroke="#000000" fill="#E29339" id="Back_Leg1"/>
  <path d="m101.1291,9.4723c-5.9242,3.3693 -18.7571,6.8116 -15.0031,12.8535c3.7534,6.0418 18.8889,-7.569 22.8528,-9.0423c0,0 5.2109,3.6864 5.5368,-0.0712c0.3267,-3.7577 -4.5883,-3.101 -4.5883,-3.101c0,0 5.6485,-0.4363 3.644,-3.9607c-2.0022,-3.5242 -4.4439,-0.6645 -5.0575,0.4808c0,0 1.8595,-3.5645 -0.7882,-4.4894c-2.6477,-0.9249 -4.1091,2.6255 -2.0705,4.6975c0.0008,-0.0008 -2.066,1.232 -4.526,2.6328l0,0l0,0l0,0l0,0l0,0z" stroke-linejoin="round" stroke-width="1.52831" stroke="#000000" fill="#E29339" id="Front_Leg2"/>
  <path d="m105.577,59.5748c-6.255,-2.7057 -16.7235,-10.888 -19.292,-4.2554c-2.5693,6.6325 17.4081,10.5383 20.9697,12.8183c0,0 0.1885,6.3808 3.3877,4.3809c3.1984,-1.9984 -0.2832,-5.531 -0.2832,-5.531c0,0 3.7459,4.2506 5.3566,0.5291c1.6107,-3.7192 -2.1421,-3.9501 -3.4259,-3.7507c0,0 3.9653,-0.6588 3.1124,-3.33c-0.8536,-2.6719 -4.5699,-1.7039 -4.9986,1.1713c-0.0001,0.0007 -2.2278,-0.9091 -4.8267,-2.0325l0,0l0,0l0,0l0,0l0,0z" stroke-linejoin="round" stroke-width="1.52831" stroke="#000000" fill="#E29339" id="Front_Leg1"/>
  <path d="m102.8503,21.5483c-6.3105,-4.3366 -19.4686,0.9547 -27.6378,1.6631c-4.2802,0.3709 -11.0725,-4.351 -18.7631,-3.763c-11.3417,0.8657 -23.0386,6.6694 -22.9493,20.0649c0.0893,13.3948 10.629,21.3947 25.034,22.1142c8.7477,0.4376 12.0592,-4.9488 16.9705,-5.3028c6.3896,-0.4604 15.5933,2.5063 24.0195,-1.8545c3.9931,-2.0664 9.0918,-10.4557 9.046,-17.5997c0.2534,-6.7236 -2.8464,-13.3473 -5.7198,-15.3222l0,0l0,0l0,0l0,0l0,0z" stroke-width="1.52831" stroke="#000000" fill="#E29339" id="Body"/>
  <path d="m120.3372,17.7392l3.2326,-8.0398" stroke-linecap="round" stroke-width="1.52831" stroke="#000000" fill="none" id="Whisker6"/>
  <path d="m123.6223,19.4031l5.1337,-6.4165" stroke-linecap="round" stroke-width="1.52831" stroke="#000000" fill="none" id="Whisker5"/>
  <path d="m127.0124,21.7531l6.1761,-1.7952" stroke-linecap="round" stroke-width="1.52831" stroke="#000000" fill="none" id="Whisker4"/>
  <path d="m121.8341,55.6093l3.8882,6.1356" stroke-linecap="round" stroke-width="1.52831" stroke="#000000" fill="none" id="Whisker3"/>
  <path d="m124.9991,53.4398l6.0902,5.5159" stroke-linecap="round" stroke-width="1.52831" stroke="#000000" fill="none" id="Whisker2"/>
  <path d="m127.1783,51.315l6.3839,0.7866" stroke-linecap="round" stroke-width="1.52831" stroke="#000000" fill="none" id="Whisker1"/>
  <path d="m96.9874,52.0208c0,0 17.5928,18.5418 24.8467,3.5885c0,0 7.2563,-0.2052 7.6655,-18.1434c0.3509,-15.3764 -2.8318,-16.1655 -7.3407,-18.4521c-0.0383,-0.019 -0.1116,-0.0631 -0.1116,-0.0631c0,0 -4.542,-15.4881 -26.0977,2.0102" stroke-linejoin="round" stroke-width="1.52831" stroke="#000000" fill="#E29339" id="Head"/>
  <g id="L_Eye">
   <path stroke-width="0.76416" d="m121.1305,47.0908c0.027,-0.7178 0.3432,-1.3567 0.8314,-1.8101c0.4888,-0.4526 1.1497,-0.7198 1.8675,-0.6928c0.7178,0.0271 1.3566,0.3433 1.81,0.8314c0.4527,0.4889 0.7199,1.1497 0.6928,1.8675c-0.027,0.7178 -0.3432,1.3567 -0.8314,1.8101c-0.4889,0.4526 -1.1497,0.7198 -1.8675,0.6928c-0.7178,-0.0271 -1.3566,-0.3433 -1.81,-0.8314c-0.4527,-0.4889 -0.7199,-1.1497 -0.6928,-1.8675l0,0l0,0l0,0l0,0z" stroke="#000000" fill="#FFFFFF" id="White"/>
   <path fill="undefined" stroke-width="0.76416" d="m122.6307,46.5654c0.0169,-0.4475 0.2139,-0.8461 0.519,-1.1283c0.3043,-0.2829 0.7166,-0.4494 1.1641,-0.4325c0.4475,0.0168 0.8461,0.2139 1.1282,0.5189c0.283,0.3043 0.4494,0.7166 0.4326,1.1641c-0.0169,0.4475 -0.2139,0.8461 -0.519,1.1283c-0.3043,0.2829 -0.7166,0.4494 -1.1641,0.4325c-0.4475,-0.0169 -0.8461,-0.2139 -1.1282,-0.5189c-0.283,-0.3043 -0.4494,-0.7167 -0.4326,-1.1641l0,0l0,0l0,0l0,0z" id="Pupil"/>
  </g>
  <g id="R_Eye">
   <path stroke-width="0.76416" d="m122.0249,26.564c0.0271,-0.7178 0.3433,-1.3566 0.8314,-1.8101c0.4889,-0.4526 1.1497,-0.7198 1.8675,-0.6927c0.7178,0.027 1.3567,0.3432 1.8101,0.8313c0.4526,0.4889 0.7198,1.1498 0.6928,1.8676c-0.0271,0.7177 -0.3433,1.3566 -0.8314,1.81c-0.4889,0.4526 -1.1497,0.7199 -1.8675,0.6928c-0.7178,-0.0271 -1.3567,-0.3432 -1.8101,-0.8314c-0.4526,-0.4889 -0.7198,-1.1497 -0.6928,-1.8675l0,0l0,0l0,0l0,0z" stroke="#000000" fill="#FFFFFF" id="White_1_"/>
   <path fill="undefined" stroke-width="0.76416" d="m123.5252,26.0386c0.0169,-0.4475 0.2139,-0.8461 0.5189,-1.1282c0.3043,-0.283 0.7167,-0.4494 1.1641,-0.4326c0.4475,0.0169 0.8462,0.2139 1.1283,0.519c0.2829,0.3043 0.4494,0.7166 0.4325,1.1641c-0.0168,0.4474 -0.2139,0.8461 -0.5189,1.1282c-0.3043,0.283 -0.7166,0.4494 -1.1641,0.4326c-0.4475,-0.0169 -0.8461,-0.2139 -1.1283,-0.519c-0.2829,-0.3043 -0.4494,-0.7166 -0.4325,-1.1641l0,0l0,0l0,0l0,0z" id="Pupil_1_"/>
  </g>
  <path d="m128.5109,37.3813c0.0383,-1.0163 0.2566,-1.9296 0.5782,-2.585c0.3217,-0.6563 0.7472,-1.0532 1.1991,-1.0361c0.4518,0.017 0.8463,0.4448 1.1176,1.1234c0.2714,0.6778 0.4203,1.6049 0.382,2.6212c-0.0383,1.0164 -0.2565,1.9296 -0.5782,2.5851c-0.3217,0.6562 -0.7472,1.0531 -1.199,1.0361c-0.4519,-0.017 -0.8463,-0.4448 -1.1177,-1.1234c-0.2714,-0.6778 -0.4203,-1.6049 -0.382,-2.6213l0,0l0,0l0,0l0,0z" stroke-width="1.30982" stroke="#000000" fill="#EC008C" id="Nose"/>
  <g id="L_Ear">
   <path d="m101.2276,43.5219c0,0 -3.6227,7.4524 -5.28,9.9937c-1.6573,2.5421 -3.1997,3.293 -2.4457,4.3087c0.7532,1.0148 10.1936,-1.5054 13.0553,-1.0052" stroke-linejoin="round" stroke-linecap="round" stroke-width="1.52831" stroke="#000000" fill="#E29339" id="Outer_Ear"/>
   <path stroke-width="0.76416" d="m96.8455,55.7862c0,0 6.5291,-1.5869 8.3833,-1.2165c-0.0014,-0.0016 0.5496,0.0681 0.5496,0.0681c-0.7516,-1.6051 -2.4064,-5.2784 -2.9684,-7.4721c-1.7251,3.5704 -5.9645,8.6205 -5.9645,8.6205l0,0l0,0l0,0l0,0l0,0z" fill="#58595B" id="Inner_Ear"/>
  </g>
  <g id="R_Ear">
   <path d="m106.5514,18.0379c-2.892,0.2825 -12.1152,-2.9404 -12.9426,-1.9859c-0.8283,0.956 0.6532,1.8217 2.1145,4.4813c1.4613,2.6581 4.5127,10.362 4.5127,10.362" stroke-linejoin="round" stroke-linecap="round" stroke-width="1.52831" stroke="#000000" fill="#E29339" id="Outer_Ear_1_"/>
   <path stroke-width="0.76416" d="m96.7903,18.3353c0,0 6.3912,2.0738 8.268,1.844c-0.0016,0.0023 0.5531,-0.0265 0.5531,-0.0265c-0.8703,1.544 -2.7968,5.0815 -3.5223,7.2275c-1.4523,-3.6902 -5.2988,-9.045 -5.2988,-9.045l0,0l0,0l0,0l0,0l0,0z" fill="#58595B" id="Inner_Ear_1_"/>
  </g>
  <path d="m37.7575,41.7568c-0.4905,2.1403 -2.6204,3.4831 -4.7648,3.0008c-7.2469,-1.6266 -12.8675,-0.875 -16.7057,2.2357c-6.3798,5.1698 -6.4353,15.5921 -6.4339,15.6946c0.0269,2.208 -1.7379,4.0127 -3.9436,4.0404c-2.2042,0.0278 -4.0126,-1.7387 -4.0397,-3.9429c-0.0071,-0.5829 -0.0631,-14.3336 9.3906,-21.9959c5.8308,-4.7248 13.7319,-6.0107 23.4811,-3.821c2.1505,0.4826 3.5031,2.6189 3.0205,4.7694c-0.0017,0.006 -0.0027,0.0121 -0.0045,0.0189l0,0l0,0l0,0l0,0l0,0l0,0z" stroke-width="1.52831" stroke="#000000" fill="#E29339" id="Tail"/>
 </g>
</svg>