<svg width="115.0999984741211" height="52.57439041137695" xmlns="http://www.w3.org/2000/svg" version="1.1">
 <!-- Exported by Scratch - http://scratch.mit.edu/ -->

 <g>
  <title>Layer 1</title>
  <path d="m73.4,38.9c0,0 -1.8,5.8 -3.7,6.2c-1.9,0.4 -3.6,1.5 -3.5,2.2c0.3,1.4 2.7,0.8 2.7,0.8c0,0 -1.8,3.3 -0.4,4.1c1.5,0.8 4,-2.7 4,-2.7c0,0 1.5,3.4 3.6,2.1c2.1,-1.3 -2.3,-5.7 -2.3,-5.7c0,0 1.9,-3.8 3,-5.3c1.7,-2.2 -2.9,-3.8 -3.4,-1.7l0,0l0,0z" stroke="#000000" fill="#7F7F7F" id="Front_Foot_1_1_"/>
  <path d="m54.9,38.6c0,0 -2.3,5.6 -4.2,5.9c-1.9,0.2 -3.7,1.2 -3.7,1.9c0.2,1.4 2.7,1 2.7,1c0,0 -2.1,3.2 -0.7,4c1.4,0.9 4.2,-2.3 4.2,-2.3c0,0 1.2,3.5 3.4,2.4c2.2,-1.2 -1.8,-5.9 -1.8,-5.9c0,0 2.2,-3.6 3.4,-5c1.9,-2 -2.6,-4.1 -3.3,-2l0,0l0,0z" stroke="#000000" fill="#7F7F7F" id="Back_Foot_1_1_"/>
  <path d="m59.1,11.7c0,0 -4.1,-4.5 -3.5,-6.3c0.6,-1.8 0.5,-3.9 -0.2,-4.1c-1.3,-0.4 -2.1,2 -2.1,2c0,0 -1.9,-3.3 -3.3,-2.4c-1.4,0.9 0.3,4.8 0.3,4.8c0,0 -3.7,-0.4 -3.6,2c0.1,2.5 6.1,0.9 6.1,0.9c0,0 2.3,3.5 3,5.3c1.1,2.4 4.9,-0.7 3.3,-2.2l0,0l0,0z" stroke="#000000" fill="#7F7F7F" id="Back_Foot_2_1_"/>
  <path d="m76.8,15.1c0,0 -2.4,-5.6 -1.2,-7.1c1.2,-1.5 1.8,-3.5 1.2,-3.9c-1.1,-0.8 -2.6,1.2 -2.6,1.2c0,0 -0.8,-3.7 -2.4,-3.3c-1.6,0.4 -1.3,4.6 -1.3,4.6c0,0 -3.4,-1.6 -4.1,0.7c-0.7,2.4 5.5,2.9 5.5,2.9c0,0 1,4.1 1.1,6c0.2,2.5 4.8,0.8 3.8,-1.1l0,0l0,0z" stroke="#000000" fill="#7F7F7F" id="Front_Foot_2_1_"/>
  <path d="m85.6,35.3c-3,3.6 -11.1,8.6 -26.9,7.4c-15.8,-1.2 -19.4,-11 -17.5,-20.7c1.9,-9.7 10.8,-14.5 23.9,-11.8c12.3,3.6 13.5,3.8 17.8,6c9.9,5.2 6,15.1 2.7,19.1l0,0l0,0zm-26.8,7.4c-15.8,-1.2 -19.4,-11 -17.5,-20.7c1.9,-9.7 10.8,-14.5 23.9,-11.8" stroke="#000000" fill="#7F7F7F" id="Body"/>
  <path d="m107.5,36.4c0,0 0.6,2.6 3.4,4.2" stroke-linecap="round" stroke="#000000" fill="none" id="Whisker4"/>
  <path d="m109.3,35.1c0,0 1.5,2.2 4.7,2.7" stroke-linecap="round" stroke="#000000" fill="none" id="Whisker3"/>
  <path d="m108.2,19.5c0,0 0.6,-2.6 3.4,-4.3" stroke-linecap="round" stroke="#000000" fill="none" id="Whisker2"/>
  <path d="m109.9,21.5c0,0 1.4,-2.2 4.7,-2.8" stroke-linecap="round" stroke="#000000" fill="none" id="Whisker1"/>
  <path d="m96.2,39.8c0,0 4.5,1 10.4,-2.5c2.7,-1.6 5.3,-4.3 5.2,-9.1c-0.1,-7.1 -4.9,-10.2 -7.3,-11.6c-5.1,-3.1 -9.2,-1.2 -9.2,-1.2c-3.8,0 -11.4,5.7 -11.1,12.3c0.3,6.6 5.7,11.4 12,12.1l0,0l0,0z" stroke="#000000" fill="#7F7F7F" id="Head_1_"/>
  <path fill="undefined" d="m109.7,28.3c0,-0.9 0.2,-1.7 0.6,-2.3c0.4,-0.6 1,-1 1.6,-1c0.6,0 1.2,0.4 1.6,0.9c0.4,0.6 0.7,1.4 0.7,2.3c0,0.9 -0.2,1.7 -0.6,2.3c-0.4,0.6 -1,1 -1.6,1c-0.6,0 -1.2,-0.4 -1.6,-0.9c-0.4,-0.5 -0.7,-1.4 -0.7,-2.3l0,0z" stroke="#000000" id="Nose"/>
  <g id="R_Eye">
   <path d="m97.7,22.5c0,-0.9 0.3,-1.7 0.9,-2.3c0.6,-0.6 1.4,-1 2.3,-1c0.9,0 1.7,0.3 2.3,0.9c0.6,0.6 1,1.4 1,2.3c0,0.9 -0.3,1.7 -0.9,2.3c-0.6,0.6 -1.4,1 -2.3,1c-0.9,0 -1.7,-0.3 -2.3,-0.9c-0.6,-0.6 -1,-1.4 -1,-2.3l0,0z" stroke="#000000" fill="#FFFFFF" id="White"/>
   <path fill="undefined" d="m99.6,21.7c0,-0.6 0.2,-1.1 0.6,-1.5c0.4,-0.4 0.9,-0.6 1.4,-0.6c0.5,0 1.1,0.2 1.5,0.6c0.4,0.4 0.6,0.9 0.6,1.4c0,0.6 -0.2,1.1 -0.6,1.5c-0.4,0.4 -0.9,0.6 -1.4,0.6c-0.5,0 -1.1,-0.2 -1.5,-0.6c-0.4,-0.3 -0.6,-0.8 -0.6,-1.4l0,0z" id="Pupil"/>
   <g id="Eyelid">
    <path d="m98,26.1c0,0 -5.2,-3.2 -0.1,-7.3c0.1,0 1.7,4 0.1,7.3l0,0l0,0z" fill="#58595B" id="Lid"/>
    <path fill="undefined" d="m99.2,22.7c0,2.7 -0.8,4 -0.9,4c-0.2,0.2 -0.5,0.3 -0.7,0.1c-0.2,-0.2 -0.3,-0.5 -0.1,-0.7c0,0 0.8,-1.2 0.7,-3.9c-0.1,-2.6 -0.6,-3.2 -0.6,-3.2c-0.2,-0.2 -0.2,-0.5 0,-0.7c0.2,-0.2 0.5,-0.2 0.8,0c0.2,0.2 0.8,1 0.9,3.9c-0.1,0.1 -0.1,0.3 -0.1,0.5l0,0l0,0l0,0z" id="Lash"/>
   </g>
  </g>
  <g id="L_Eye">
   <path d="m97.7,34c0,-0.9 0.3,-1.7 0.9,-2.3c0.6,-0.6 1.4,-1 2.3,-1c0.9,0 1.7,0.3 2.3,0.9c0.6,0.6 1,1.4 1,2.3c0,0.9 -0.3,1.7 -0.9,2.3c-0.6,0.6 -1.4,1 -2.3,1c-0.9,0 -1.7,-0.3 -2.3,-0.9c-0.7,-0.5 -1,-1.3 -1,-2.3l0,0z" stroke="#000000" fill="#FFFFFF" id="White_1_"/>
   <path fill="undefined" d="m99.4,33.2c0,-0.6 0.2,-1.1 0.6,-1.5c0.4,-0.4 0.9,-0.6 1.4,-0.6c0.6,0 1.1,0.2 1.5,0.6c0.4,0.4 0.6,0.9 0.6,1.4c0,0.6 -0.2,1.1 -0.6,1.5c-0.4,0.4 -0.9,0.6 -1.4,0.6c-0.6,0 -1.1,-0.2 -1.5,-0.6c-0.3,-0.3 -0.6,-0.8 -0.6,-1.4l0,0z" id="Pupil_1_"/>
   <g id="Eyelid_1_">
    <path d="m98.4,37.9c0,0 -5.5,-2.7 -0.8,-7.2c-0.1,0 2,3.8 0.8,7.2l0,0l0,0z" fill="#58595B" id="Lid_1_"/>
    <path fill="undefined" d="m99.2,34.4c0.3,2.7 -0.4,4 -0.5,4.1c-0.1,0.3 -0.5,0.3 -0.7,0.2c-0.2,-0.1 -0.3,-0.5 -0.2,-0.7c0,0 0.7,-1.3 0.3,-4c-0.4,-2.6 -1,-3.2 -1,-3.2c-0.2,-0.2 -0.3,-0.5 -0.1,-0.7c0.2,-0.2 0.5,-0.3 0.7,-0.1c0.2,0.2 0.9,0.9 1.3,3.8c0.1,0.3 0.1,0.5 0.2,0.6l0,0l0,0l0,0z" id="Lash_1_"/>
   </g>
  </g>
  <path d="m92.3,33.2c0,0 -4.3,-0.2 -7.7,1.7c-4.3,2.4 -5.4,7.8 -2.8,11c2.6,3.2 8,3.9 11,1.4c4.1,-3.4 4,-9.1 4,-9.1" stroke="#000000" fill="#57595B" id="L_Ear"/>
  <path d="m96.5,19c0,0 -0.1,-4.3 -2.3,-7.6c-2.8,-4.1 -8.2,-4.8 -11.2,-2c-3,2.9 -3.3,8.2 -0.5,11c3.7,3.8 9.4,3.3 9.4,3.3" stroke="#000000" fill="#57595B" id="R_Ear"/>
  <path d="m43.8,28.7c-4.9,1.7 -12.1,1 -22.5,-4c-12.4,-6.1 -20.8,-15 -20.8,-15.2c0,0 11.9,9.1 21.2,13.4c9.8,4.4 16.7,4.7 21.3,3.1c2.3,0.8 0.9,2.6 0.9,2.6c0,0 0,0 -0.1,0.1l0,0l0,0z" stroke-linejoin="round" stroke="#000000" fill="#58595B" id="Tail"/>
 </g>
</svg>